<!-- Copyright 2000-2026 JetBrains s.r.o. and contributors. Use of this source code is governed by the Apache 2.0 license. -->
<svg width="16" height="16" viewBox="0 0 16 16" fill="none" xmlns="http://www.w3.org/2000/svg"><defs><mask id="cutout-mask"><rect width="16" height="16" fill="white"/><g stroke="black" stroke-width="3" stroke-linejoin="round" stroke-linecap="round"><path d="M10 10C10 9.44772 10.4477 9 11 9H13C13.5523 9 14 9.44772 14 10V15C14 15.5523 13.5523 16 13 16H11C10.4477 16 10 15.5523 10 15V10Z" fill="black" stroke="black"/><path d="M10 10L8.5 10C8.22386 10 8 10.2239 8 10.5C8 10.7761 8.22386 11 8.5 11H10V12H8.5C8.22386 12 8 12.2239 8 12.5C8 12.7761 8.22386 13 8.5 13H10V14H8.5C8.22386 14 8 14.2239 8 14.5C8 14.7761 8.22386 15 8.5 15H10C10 15.5523 10.4477 16 11 16H13C13.5523 16 14 15.5523 14 15H15.5C15.7761 15 16 14.7761 16 14.5C16 14.2239 15.7761 14 15.5 14H14V13H15.5C15.7761 13 16 12.7761 16 12.5C16 12.2239 15.7761 12 15.5 12H14V11H15.5C15.7761 11 16 10.7761 16 10.5C16 10.2239 15.7761 10 15.5 10H14C14 9.44772 13.5523 9 13 9H11C10.4477 9 10 9.44772 10 10ZM11 10H13V15H11V10Z" fill="black" stroke="black"/></g></mask></defs><g mask="url(#cutout-mask)"><path fill-rule="evenodd" clip-rule="evenodd" d="M11 1H7.91421C7.51639 1 7.13486 1.15803 6.85355 1.43934L3.43934 4.85355C3.15804 5.13486 3 5.51639 3 5.91421V13C3 14.1046 3.89543 15 5 15H11C12.1046 15 13 14.1046 13 13V3C13 1.89543 12.1046 1 11 1ZM4 13C4 13.5523 4.44772 14 5 14H11C11.5523 14 12 13.5523 12 13V3C12 2.44772 11.5523 2 11 2H8V4.5C8 5.32843 7.32843 6 6.5 6H4V13ZM4.70711 5L7 2.70711V4.5C7 4.77614 6.77614 5 6.5 5H4.70711Z" fill="#CED0D6"/><path d="M5 14C4.44772 14 4 13.5523 4 13V6H6.5C7.32843 6 8 5.32843 8 4.5V2H11C11.5523 2 12 2.44772 12 3V13C12 13.5523 11.5523 14 11 14H5Z" fill="#43454A"/><path d="M7 2.70711L4.70711 5H6.5C6.77614 5 7 4.77614 7 4.5V2.70711Z" fill="#43454A"/></g><g><path d="M10 10C10 9.44772 10.4477 9 11 9H13C13.5523 9 14 9.44772 14 10V15C14 15.5523 13.5523 16 13 16H11C10.4477 16 10 15.5523 10 15V10Z" fill="#25324D"/><path fill-rule="evenodd" clip-rule="evenodd" d="M10 10L8.5 10C8.22386 10 8 10.2239 8 10.5C8 10.7761 8.22386 11 8.5 11H10V12H8.5C8.22386 12 8 12.2239 8 12.5C8 12.7761 8.22386 13 8.5 13H10V14H8.5C8.22386 14 8 14.2239 8 14.5C8 14.7761 8.22386 15 8.5 15H10C10 15.5523 10.4477 16 11 16H13C13.5523 16 14 15.5523 14 15H15.5C15.7761 15 16 14.7761 16 14.5C16 14.2239 15.7761 14 15.5 14H14V13H15.5C15.7761 13 16 12.7761 16 12.5C16 12.2239 15.7761 12 15.5 12H14V11H15.5C15.7761 11 16 10.7761 16 10.5C16 10.2239 15.7761 10 15.5 10H14C14 9.44772 13.5523 9 13 9H11C10.4477 9 10 9.44772 10 10ZM11 10H13V15H11V10Z" fill="#548AF7"/></g></svg>