<!-- Copyright 2000-2026 JetBrains s.r.o. and contributors. Use of this source code is governed by the Apache 2.0 license. -->
<svg width="16" height="16" viewBox="0 0 16 16" fill="none" xmlns="http://www.w3.org/2000/svg">
<path d="M6.837 1.738C7.817 0.755 9.407 0.756 10.388 1.738C10.971 2.323 11.205 3.124 11.094 3.884C11.852 3.773 12.651 4.008 13.235 4.593L13.264 4.622C14.244 5.605 14.244 7.197 13.264 8.18L8.117 13.341C8.05 13.409 8.05 13.52 8.117 13.588L9.174 14.648C9.368 14.843 9.368 15.159 9.173 15.354C8.978 15.548 8.662 15.547 8.468 15.353L7.411 14.292C6.955 13.835 6.955 13.094 7.411 12.637L12.558 7.476C13.149 6.882 13.149 5.919 12.558 5.326L12.528 5.297L12.413 5.192C11.819 4.706 10.943 4.742 10.389 5.297L6.092 9.606C5.897 9.802 5.581 9.802 5.386 9.607C5.191 9.413 5.191 9.097 5.385 8.902L9.683 4.592C10.274 3.999 10.274 3.037 9.683 2.443C9.092 1.851 8.135 1.851 7.544 2.443L1.854 8.15C1.659 8.345 1.343 8.346 1.148 8.151C0.952 7.957 0.952 7.64 1.147 7.445L6.837 1.738ZM8.26 3.166C8.454 2.971 8.771 2.971 8.966 3.165C9.161 3.36 9.161 3.675 8.967 3.87L4.758 8.091C4.167 8.684 4.167 9.646 4.758 10.239C5.349 10.832 6.306 10.832 6.897 10.239L11.106 6.02C11.3 5.824 11.616 5.824 11.811 6.019C12.006 6.213 12.006 6.529 11.812 6.724L7.604 10.944C6.623 11.928 5.032 11.928 4.052 10.944C3.072 9.962 3.072 8.369 4.052 7.387L8.26 3.166Z" fill="black"/>
</svg>