<svg width="16" height="16" viewBox="0 0 16 16" fill="none" xmlns="http://www.w3.org/2000/svg">
<g clip-path="url(#clip0_23351_10997)">
<path fill-rule="evenodd" clip-rule="evenodd" d="M15.8612 14.546L13.4601 10.5443C13.0251 9.81923 11.9744 9.81923 11.5394 10.5443L9.13829 14.546C8.75437 15.1859 9.21528 15.9999 9.96148 15.9999H15.038C15.7842 15.9999 16.2451 15.1859 15.8612 14.546Z" fill="#F2C55C"/>
<path d="M13.0001 11.5C13.0001 11.2239 12.7762 11 12.5 11C12.2239 11 12 11.2239 12 11.5V12.5C12 12.7761 12.2239 13 12.5 13C12.7762 13 13.0001 12.7761 13.0001 12.5V11.5Z" fill="#5E4D33"/>
<path d="M12.5002 15C12.7763 15 13.0002 14.7762 13.0002 14.5001C13.0002 14.2239 12.7763 14 12.5002 14C12.224 14 12.0002 14.2238 12.0001 14.4999C12 14.7761 12.224 15 12.5002 15Z" fill="#5E4D33"/>
<path d="M9.5 1C9.77614 1 10 1.22386 10 1.5V3H11C12.1046 3 13 3.89543 13 5V6H14.5C14.7761 6 15 6.22386 15 6.5C15 6.77614 14.7761 7 14.5 7H13V9H12.4805C12.319 9.00146 12.1577 9.0209 12 9.05859V5C12 4.44772 11.5523 4 11 4H5C4.44772 4 4 4.44772 4 5V11C4 11.5523 4.44772 12 5 12H9.50098L8.90039 13H7V14.5C7 14.7761 6.77614 15 6.5 15C6.22386 15 6 14.7761 6 14.5V13H5C3.89543 13 3 12.1046 3 11V10H1.5C1.22386 10 1 9.77614 1 9.5C1 9.22386 1.22386 9 1.5 9H3V7H1.5C1.22386 7 1 6.77614 1 6.5C1 6.22386 1.22386 6 1.5 6H3V5C3 3.89543 3.89543 3 5 3H6V1.5C6 1.22386 6.22386 1 6.5 1C6.77614 1 7 1.22386 7 1.5V3H9V1.5C9 1.22386 9.22386 1 9.5 1Z" fill="#CED0D6"/>
<path fill-rule="evenodd" clip-rule="evenodd" d="M9 6C9.55228 6 10 6.44772 10 7V9C10 9.55228 9.55228 10 9 10H7C6.44772 10 6 9.55228 6 9V7C6 6.44772 6.44772 6 7 6H9ZM7 9H9V7H7V9Z" fill="#CED0D6"/>
</g>
<defs>
<clipPath id="clip0_23351_10997">
<rect width="16" height="16" fill="white"/>
</clipPath>
</defs>
</svg>
