<svg width="16" height="16" viewBox="0 0 16 16" fill="none" xmlns="http://www.w3.org/2000/svg">
<path d="M9.5 1C9.77614 1 10 1.22386 10 1.5V3H11C12.1046 3 13 3.89543 13 5V6H14.5C14.7761 6 15 6.22386 15 6.5C15 6.77614 14.7761 7 14.5 7H13V8.02832C12.8358 8.01017 12.669 8 12.5 8C12.331 8 12.1642 8.01017 12 8.02832V5C12 4.44772 11.5523 4 11 4H5C4.44772 4 4 4.44772 4 5V11C4 11.5523 4.44772 12 5 12H8.02832C8.01017 12.1642 8 12.331 8 12.5C8 12.669 8.01017 12.8358 8.02832 13H7V14.5C7 14.7761 6.77614 15 6.5 15C6.22386 15 6 14.7761 6 14.5V13H5C3.89543 13 3 12.1046 3 11V10H1.5C1.22386 10 1 9.77614 1 9.5C1 9.22386 1.22386 9 1.5 9H3V7H1.5C1.22386 7 1 6.77614 1 6.5C1 6.22386 1.22386 6 1.5 6H3V5C3 3.89543 3.89543 3 5 3H6V1.5C6 1.22386 6.22386 1 6.5 1C6.77614 1 7 1.22386 7 1.5V3H9V1.5C9 1.22386 9.22386 1 9.5 1ZM9 6C9.55228 6 10 6.44772 10 7V8.75781C9.50923 9.08633 9.08736 9.50927 8.75879 10H7C6.44772 10 6 9.55228 6 9V7C6 6.44772 6.44772 6 7 6H9ZM7 9H9V7H7V9Z" fill="#6C707E"/>
<circle cx="12.5" cy="12.5" r="3.5" fill="#E55765"/>
<path d="M12.5 10C12.2239 10 12 10.2239 12 10.5V12.5C12 12.7761 12.2239 13 12.5 13C12.7761 13 13 12.7761 13 12.5V10.5C13 10.2239 12.7761 10 12.5 10Z" fill="white"/>
<path d="M12.5 15C12.7761 15 13 14.7761 13 14.5C13 14.2239 12.7761 14 12.5 14C12.2239 14 12 14.2239 12 14.5C12 14.7761 12.2239 15 12.5 15Z" fill="white"/>
</svg>
