<svg width="64" height="64" viewBox="0 0 64 64" fill="none" xmlns="http://www.w3.org/2000/svg">
<g clip-path="url(#clip0_5739_40240)">
<g clip-path="url(#clip1_5739_40240)">
<g clip-path="url(#clip2_5739_40240)">
<path d="M26.6463 10.7102H26.6478C38.8692 10.7102 48.7914 20.6327 48.7914 32.8545V32.8555C48.7914 45.0772 38.8693 54.9996 26.648 54.9996H26.6465C14.4246 54.9996 4.50195 45.0766 4.50195 32.8543V32.8553C4.50195 20.6331 14.4245 10.7102 26.6463 10.7102Z" fill="url(#paint0_linear_5739_40240)"/>
<path d="M28.4606 38.803L51.7363 38.803C56.0241 38.803 59.5 35.3271 59.5 31.0393L59.5 7.76369C59.5 3.47594 56.0241 2.42762e-05 51.7364 2.12828e-05L28.4607 5.03332e-06C24.1729 2.0399e-06 20.697 3.47591 20.697 7.76367L20.697 31.0393C20.697 35.327 24.1729 38.803 28.4606 38.803Z" fill="url(#paint1_linear_5739_40240)"/>
<path d="M20.6973 11.6424L47.8577 11.6423L47.8577 38.8027L20.6973 38.8028L20.6973 11.6424Z" fill="black"/>
<path d="M24.5762 31.0418L39.6118 31.0417V34.9219L24.5762 34.9219L24.5762 31.0418Z" fill="white"/>
</g>
</g>
<rect y="44" width="63.9994" height="20" rx="7" fill="#FDB60D"/>
<g opacity="0.9">
<path d="M5.49219 57.9434H7.20466V55.5672H8.50569C10.2515 55.5672 11.6526 54.6167 11.6526 52.7836V52.761C11.6526 51.1429 10.5295 50.0226 8.67249 50.0226H5.49219V57.9434ZM7.20466 54.017V51.5955H8.52793C9.38416 51.5955 9.91792 52.0141 9.91792 52.7949V52.8175C9.91792 53.4965 9.41752 54.017 8.56129 54.017H7.20466Z" fill="#010101"/>
<path d="M12.92 57.9434H14.6324V55.4088H15.9779L17.6459 57.9434H19.6475L17.746 55.1146C18.7357 54.7412 19.414 53.9378 19.414 52.6591V52.6365C19.414 51.8897 19.1805 51.2673 18.7468 50.826C18.2353 50.3055 17.468 50.0226 16.4783 50.0226H12.92V57.9434ZM14.6324 53.8699V51.5955H16.3338C17.1678 51.5955 17.6793 51.9802 17.6793 52.727V52.7496C17.6793 53.4173 17.2011 53.8699 16.3671 53.8699H14.6324Z" fill="#010101"/>
<path d="M20.9558 57.9434H26.8828V56.3932H22.6572V54.7298H26.3268V53.1796H22.6572V51.5728H26.8272V50.0226H20.9558V57.9434Z" fill="#010101"/>
<path d="M30.8851 58H32.3974L35.5443 50.0226H33.6984L31.6635 55.6011L29.6285 50.0226H27.7381L30.8851 58Z" fill="#010101"/>
<path d="M36.8231 57.9434H38.5356V50.0226H36.8231V57.9434Z" fill="#010101"/>
<path d="M40.4809 57.9434H46.4078V56.3932H42.1822V54.7298H45.8518V53.1796H42.1822V51.5728H46.3522V50.0226H40.4809V57.9434Z" fill="#010101"/>
<path d="M49.9875 58H51.4776L53.2346 52.8175L54.9915 58H56.4816L59.1392 50.0226H57.3489L55.7365 55.3861L53.9907 50H52.5229L50.7771 55.3861L49.1647 50.0226H47.3299L49.9875 58Z" fill="#010101"/>
</g>
</g>
<defs>
<linearGradient id="paint0_linear_5739_40240" x1="9.44447" y1="57.147" x2="36.9506" y2="22.7643" gradientUnits="userSpaceOnUse">
<stop  offset="0" stop-color="#3BEA62"/>
<stop offset="0.543588" stop-color="#0894FA"/>
<stop offset="1" stop-color="#764EFF"/>
</linearGradient>
<linearGradient id="paint1_linear_5739_40240" x1="58.3821" y1="0.89418" x2="30.8829" y2="28.3934" gradientUnits="userSpaceOnUse">
<stop  offset="0" stop-color="#3BEA62"/>
<stop offset="0.543588" stop-color="#0894FA"/>
<stop offset="1" stop-color="#764EFF"/>
</linearGradient>
<clipPath id="clip0_5739_40240">
<rect width="64" height="64" fill="white"/>
</clipPath>
<clipPath id="clip1_5739_40240">
<rect width="64" height="64" fill="white"/>
</clipPath>
<clipPath id="clip2_5739_40240">
<rect width="54.9998" height="54.9998" fill="white" transform="translate(4.5)"/>
</clipPath>
</defs>
</svg>
